HIERARCHY
ROOT Hips
{
	OFFSET 0.000000 89.005402 0.000000
	CHANNELS 6 Xposition Yposition Zposition Xrotation Yrotation Zrotation
	JOINT Spine
	{
		OFFSET 0.116900 10.681000 0.373400
		CHANNELS 3 Xrotation Yrotation Zrotation
		JOINT Spine1
		{
			OFFSET 0.000000 13.840401 0.053500
			CHANNELS 3 Xrotation Yrotation Zrotation
			JOINT Spine2
			{
				OFFSET 0.000000 14.712700 -0.366200
				CHANNELS 3 Xrotation Yrotation Zrotation
				JOINT Neck
				{
					OFFSET 0.000000 35.415497 -3.314200
					CHANNELS 3 Xrotation Yrotation Zrotation
					JOINT Head
					{
						OFFSET 0.000000 16.899200 1.218300
						CHANNELS 3 Xrotation Yrotation Zrotation
						JOINT HeadTop_End
						{
							OFFSET 0.000000 22.206207 2.192500
							CHANNELS 3 Xrotation Yrotation Zrotation
							End Site
							{
								OFFSET 0.000000 22.314178 0.000000
							}
						}
					}
				}
				JOINT LeftShoulder
				{
					OFFSET 12.896400 26.716293 -4.548400
					CHANNELS 3 Xrotation Yrotation Zrotation
					JOINT LeftArm
					{
						OFFSET 19.027000 -4.857010 -1.718400
						CHANNELS 3 Xrotation Yrotation Zrotation
						JOINT LeftForeArm
						{
							OFFSET 24.179897 0.000000 0.000000
							CHANNELS 3 Xrotation Yrotation Zrotation
							JOINT LeftHand
							{
								OFFSET 27.156403 0.000000 0.000000
								CHANNELS 3 Xrotation Yrotation Zrotation
								JOINT LeftHandIndex1
								{
									OFFSET 16.441200 0.000000 0.000000
									CHANNELS 3 Xrotation Yrotation Zrotation
									JOINT LeftHandIndex2
									{
										OFFSET 4.821899 0.000000 0.000000
										CHANNELS 3 Xrotation Yrotation Zrotation
										JOINT LeftHandIndex3
										{
											OFFSET 6.386497 0.000000 0.000000
											CHANNELS 3 Xrotation Yrotation Zrotation
											JOINT LeftHandIndex4
											{
												OFFSET 5.188988 0.000000 0.000000
												CHANNELS 3 Xrotation Yrotation Zrotation
												End Site
												{
													OFFSET -0.178703 5.185913 0.000177
												}
											}
										}
									}
								}
								JOINT LeftHandThumb1
								{
									OFFSET 6.534897 -5.032593 5.900300
									CHANNELS 3 Xrotation Yrotation Zrotation
									JOINT LeftHandThumb2
									{
										OFFSET 3.818176 -2.204422 2.204423
										CHANNELS 3 Xrotation Yrotation Zrotation
										JOINT LeftHandThumb3
										{
											OFFSET 3.252098 -1.877594 1.877601
											CHANNELS 3 Xrotation Yrotation Zrotation
											JOINT LeftHandThumb4
											{
												OFFSET 5.251778 -3.032120 3.032117
												CHANNELS 3 Xrotation Yrotation Zrotation
												End Site
												{
													OFFSET 0.000023 6.780014 0.000000
												}
											}
										}
									}
								}
							}
						}
					}
				}
				JOINT RightShoulder
				{
					OFFSET -12.896300 26.716293 -4.548400
					CHANNELS 3 Xrotation Yrotation Zrotation
					JOINT RightArm
					{
						OFFSET -19.027000 -4.857010 -1.718400
						CHANNELS 3 Xrotation Yrotation Zrotation
						JOINT RightForeArm
						{
							OFFSET -24.179897 0.000000 0.000000
							CHANNELS 3 Xrotation Yrotation Zrotation
							JOINT RightHand
							{
								OFFSET -27.156403 0.000000 0.000000
								CHANNELS 3 Xrotation Yrotation Zrotation
								JOINT RightHandThumb1
								{
									OFFSET -6.591202 -4.852203 5.988100
									CHANNELS 3 Xrotation Yrotation Zrotation
									JOINT RightHandThumb2
									{
										OFFSET -3.818176 -2.204422 2.204423
										CHANNELS 3 Xrotation Yrotation Zrotation
										JOINT RightHandThumb3
										{
											OFFSET -3.252098 -1.877594 1.877601
											CHANNELS 3 Xrotation Yrotation Zrotation
											JOINT RightHandThumb4
											{
												OFFSET -5.251778 -3.032120 3.032117
												CHANNELS 3 Xrotation Yrotation Zrotation
												End Site
												{
													OFFSET -0.000023 6.780014 0.000000
												}
											}
										}
									}
								}
								JOINT RightHandIndex1
								{
									OFFSET -16.029404 0.000000 0.000000
									CHANNELS 3 Xrotation Yrotation Zrotation
									JOINT RightHandIndex2
									{
										OFFSET -5.213303 0.000000 0.000000
										CHANNELS 3 Xrotation Yrotation Zrotation
										JOINT RightHandIndex3
										{
											OFFSET -6.386528 0.000000 0.000000
											CHANNELS 3 Xrotation Yrotation Zrotation
											JOINT RightHandIndex4
											{
												OFFSET -5.189026 0.000000 0.000000
												CHANNELS 3 Xrotation Yrotation Zrotation
												End Site
												{
													OFFSET 0.236702 5.183624 0.001972
												}
											}
										}
									}
								}
							}
						}
					}
				}
			}
		}
	}
	JOINT LeftUpLeg
	{
		OFFSET 14.073000 -7.904099 -1.463000
		CHANNELS 3 Xrotation Yrotation Zrotation
		JOINT LeftLeg
		{
			OFFSET -0.109806 -34.073280 4.093200
			CHANNELS 3 Xrotation Yrotation Zrotation
			JOINT LeftFoot
			{
				OFFSET 0.109806 -29.899420 -6.319000
				CHANNELS 3 Xrotation Yrotation Zrotation
				JOINT LeftToeBase
				{
					OFFSET 1.551100 -14.988700 20.535801
					CHANNELS 3 Xrotation Yrotation Zrotation
					JOINT LeftToe_End
					{
						OFFSET 0.221200 0.570800 13.248301
						CHANNELS 3 Xrotation Yrotation Zrotation
						End Site
						{
							OFFSET 0.000000 13.262435 0.000000
						}
					}
				}
			}
		}
	}
	JOINT RightUpLeg
	{
		OFFSET -13.839300 -7.904099 -1.463000
		CHANNELS 3 Xrotation Yrotation Zrotation
		JOINT RightLeg
		{
			OFFSET 0.109694 -34.073219 4.093300
			CHANNELS 3 Xrotation Yrotation Zrotation
			JOINT RightFoot
			{
				OFFSET -0.109694 -29.899384 -6.319200
				CHANNELS 3 Xrotation Yrotation Zrotation
				JOINT RightToeBase
				{
					OFFSET -1.551100 -14.988700 20.535801
					CHANNELS 3 Xrotation Yrotation Zrotation
					JOINT RightToe_End
					{
						OFFSET -0.221200 0.570900 13.248299
						CHANNELS 3 Xrotation Yrotation Zrotation
						End Site
						{
							OFFSET 0.000000 13.262440 0.000000
						}
					}
				}
			}
		}
	}
}
MOTION
Frames: 8
Frame Time: 0.033333
-1.685657 60.600998 0.459747 5.201064 -67.717453 -3.762521 9.494876 -6.682917 0.525493 9.068177 -5.787837 -1.700907 8.992412 -5.901701 -1.687587 4.951755 10.700054 -2.047784 -27.005122 56.273065 2.283151 0.000000 0.000000 0.000000 2.153520 -6.801312 -6.191419 2.258369 12.842002 -16.766520 -0.000020 -53.871645 -0.000037 -7.487243 -5.659088 41.722381 -2.660806 -2.943971 -29.720745 1.683999 4.516189 -40.882254 0.717202 3.064687 -26.336923 -0.000006 0.000000 0.000001 10.468188 7.147584 9.921591 -8.969343 17.057576 -9.772687 13.034199 26.908768 2.767805 0.000000 0.000001 -0.000000 -0.087015 -3.103261 -3.024938 35.985323 -9.941885 43.580524 0.035442 89.046952 -0.035496 25.809861 13.386267 -15.182469 12.368833 -4.624741 21.260484 17.294819 -25.325409 -0.358856 11.165244 -70.172626 -5.514515 -0.000001 -0.000002 -0.000002 5.274445 -6.773188 70.945107 4.981899 -6.665505 73.522615 3.118670 -5.801949 56.488936 0.000001 -0.000000 0.000002 -47.861864 -8.626701 53.439796 84.126818 -0.946817 -3.689546 -16.324506 16.059204 -29.430278 0.000004 0.000001 -0.000004 0.000000 -0.000000 -0.000000 -52.962871 1.810594 -6.106669 85.328071 8.200273 -2.259280 -34.290767 -4.406501 11.062826 -0.000043 -0.000002 0.000027 0.000000 -0.000000 0.000000 
-1.659739 60.784065 0.419516 5.392496 -67.790946 -3.520963 9.437148 -6.694874 0.465136 9.017372 -5.799953 -1.753490 8.941746 -5.912874 -1.740325 4.892076 10.685282 -1.924459 -27.029944 56.252506 2.251111 0.000001 -0.000000 0.000000 2.151500 -6.759347 -5.975934 2.461929 13.121657 -16.907461 -0.000008 -53.967903 -0.000034 -7.317712 -5.486978 41.560041 -2.660807 -2.943974 -29.720745 1.683999 4.516193 -40.882254 0.717206 3.064688 -26.336921 -0.000003 -0.000000 -0.000000 10.468187 7.147581 9.921591 -8.969342 17.057578 -9.772688 13.034202 26.908766 2.767800 -0.000000 0.000000 0.000001 -0.067187 -3.041997 -2.927370 35.961697 -9.617760 43.765871 -0.001445 87.552855 0.001513 26.544955 15.694241 -16.027020 12.368838 -4.624741 21.260490 17.294812 -25.325404 -0.358854 11.165232 -70.172619 -5.514511 0.000002 -0.000002 0.000000 5.274447 -6.773189 70.945113 4.981897 -6.665506 73.522615 3.118674 -5.801949 56.488933 0.000000 -0.000000 0.000000 -47.884708 -8.335168 53.334857 83.762052 -0.622264 -3.653854 -16.115756 15.881511 -29.443398 0.000004 0.000001 -0.000004 0.000000 0.000000 0.000000 -52.965569 1.661418 -6.189869 84.961106 8.335476 -2.205947 -34.002434 -4.315269 10.863204 -0.000007 -0.000007 0.000023 0.000000 0.000002 0.000000 
-1.631978 60.957077 0.384636 5.630861 -67.837555 -3.291118 9.402443 -6.760544 0.436824 8.992910 -5.866722 -1.744116 8.916087 -5.979883 -1.730802 4.860285 10.686675 -1.895033 -26.828471 56.342777 1.982409 -0.000000 -0.000002 0.000000 2.154042 -6.775353 -5.950327 2.368969 13.449321 -17.097567 -0.000045 -53.877116 -0.000040 -7.223368 -5.416971 41.351318 -2.660806 -2.943973 -29.720738 1.683999 4.516193 -40.882254 0.717202 3.064688 -26.336916 -0.000005 -0.000001 -0.000001 10.468187 7.147582 9.921593 -8.969340 17.057574 -9.772690 13.034202 26.908766 2.767801 0.000000 0.000001 0.000000 -0.062206 -3.041874 -2.843493 35.951783 -9.411234 43.959480 0.001240 86.448386 -0.001254 27.085359 17.576594 -16.942610 12.368831 -4.624739 21.260478 17.294816 -25.325409 -0.358856 11.165239 -70.172619 -5.514502 0.000001 -0.000002 -0.000001 5.274446 -6.773190 70.945113 4.981898 -6.665506 73.522615 3.118674 -5.801950 56.488933 0.000000 -0.000002 0.000001 -47.985511 -8.089620 53.347667 83.417387 -0.411776 -3.675493 -15.944556 15.644396 -29.346475 0.000004 0.000001 -0.000004 0.000000 0.000000 0.000000 -52.954344 1.549862 -6.192040 84.577488 8.347934 -2.157325 -33.723198 -4.247585 10.769841 -0.000010 -0.000000 0.000000 0.000000 -0.000000 0.000000 
-1.601010 61.114723 0.360736 5.982960 -67.748134 -3.027211 9.378075 -6.929974 0.490379 8.984530 -6.035156 -1.630693 8.904075 -6.150338 -1.616796 4.891960 10.710320 -1.989148 -26.369528 56.581417 1.448401 -0.000000 -0.000000 0.000000 2.171878 -6.916895 -6.157036 1.773166 13.900056 -17.427477 0.000000 -53.574505 0.000002 -7.549100 -5.383463 40.963137 -2.660808 -2.943972 -29.720742 1.684001 4.516196 -40.882254 0.717198 3.064688 -26.336921 -0.000003 0.000001 0.000001 10.468188 7.147579 9.921591 -8.969342 17.057574 -9.772689 13.034199 26.908766 2.767801 0.000000 0.000001 0.000000 -0.066532 -3.082654 -2.749304 35.892313 -9.320819 44.111916 0.002369 85.737561 -0.002404 27.670594 18.721267 -17.674235 12.368837 -4.624742 21.260484 17.294814 -25.325406 -0.358854 11.165247 -70.172619 -5.514511 -0.000001 0.000002 -0.000001 5.274447 -6.773190 70.945113 4.981898 -6.665506 73.522615 3.118672 -5.801949 56.488940 0.000000 -0.000001 -0.000001 -48.187292 -8.034739 53.423493 83.115356 -0.290493 -3.833348 -15.781989 15.325339 -29.118288 0.000004 0.000000 -0.000004 -0.000000 -0.000001 -0.000000 -52.901864 1.469907 -6.118070 84.190114 8.103155 -2.148185 -33.499657 -4.246335 10.889767 -0.000018 -0.000007 -0.000009 0.000000 -0.000002 0.000000 
-1.559375 61.256165 0.351599 6.439654 -67.455180 -2.711732 9.349209 -7.198253 0.626604 8.980866 -6.296716 -1.435057 8.894879 -6.414641 -1.420561 4.973507 10.741230 -2.118353 -25.772785 56.889274 0.791472 0.000000 -0.000001 0.000000 2.213046 -7.221527 -6.488184 0.469439 14.537429 -17.884984 0.000000 -53.556483 0.000002 -8.336989 -5.235393 40.360711 -2.660809 -2.943975 -29.720745 1.684001 4.516194 -40.882254 0.717207 3.064687 -26.336916 0.000001 -0.000000 0.000001 10.468187 7.147578 9.921591 -8.969340 17.057574 -9.772689 13.034200 26.908765 2.767804 -0.000000 0.000001 -0.000000 -0.073643 -3.136184 -2.651864 35.691901 -9.318937 44.140518 -0.000268 85.285854 0.000286 28.371083 19.200331 -18.097638 12.368834 -4.624742 21.260477 17.294818 -25.325409 -0.358853 11.165242 -70.172619 -5.514504 0.000000 0.000004 -0.000000 5.274445 -6.773188 70.945113 4.981899 -6.665504 73.522615 3.118676 -5.801949 56.488933 0.000001 -0.000000 0.000001 -48.489589 -8.243802 53.229563 82.880555 -0.087303 -3.899508 -15.541204 15.126671 -28.968987 0.000004 0.000002 -0.000004 -0.000000 0.000001 -0.000000 -52.843729 1.197616 -6.232010 83.819815 8.058731 -2.124154 -33.349666 -4.238508 10.886604 -0.000015 -0.000022 0.000004 -0.000000 0.000000 0.000000 
-1.486296 61.388954 0.358138 6.911377 -67.031845 -2.400465 9.334970 -7.497482 0.789393 9.003003 -6.583741 -1.223334 8.911910 -6.703401 -1.208713 5.018382 10.756177 -2.141332 -25.219796 57.138866 0.184275 0.000000 0.000001 -0.000000 2.265537 -7.599039 -6.782245 -1.449508 15.321122 -18.286168 -0.000030 -54.842307 -0.000036 -8.629835 -4.807254 39.675671 -2.660808 -2.943974 -29.720745 1.683999 4.516190 -40.882251 0.717204 3.064688 -26.336914 -0.000003 -0.000001 0.000000 10.468186 7.147575 9.921590 -8.969341 17.057576 -9.772689 13.034199 26.908765 2.767803 0.000000 0.000000 -0.000000 -0.076909 -3.174726 -2.554006 35.237264 -9.456977 44.031337 0.002652 85.046599 -0.002590 28.915831 19.315941 -18.298592 12.368833 -4.624742 21.260478 17.294814 -25.325407 -0.358853 11.165250 -70.172619 -5.514509 -0.000002 0.000000 -0.000001 5.274446 -6.773190 70.945113 4.981898 -6.665501 73.522615 3.118675 -5.801950 56.488936 0.000001 -0.000001 0.000004 -48.889135 -8.578167 52.859117 82.662788 0.072869 -3.891957 -15.315675 14.945052 -28.790432 0.000004 0.000001 -0.000004 -0.000000 0.000000 0.000000 -52.785331 0.782176 -6.487228 83.458198 8.045229 -2.121001 -33.206597 -4.230365 10.875399 -0.000024 0.000000 -0.000005 -0.000000 0.000000 -0.000000 
-1.376248 61.538467 0.364274 7.317505 -66.570002 -2.167307 9.389599 -7.792658 0.937935 9.097425 -6.861848 -1.014299 9.002848 -6.981994 -1.000129 4.954728 10.753621 -2.041739 -24.802259 57.310867 -0.369649 -0.000001 0.000001 0.000000 2.297266 -7.847235 -7.010727 -3.605961 16.119197 -18.434141 -0.000004 -58.270086 0.000016 -7.058113 -4.020723 38.866594 -2.660808 -2.943975 -29.720742 1.683999 4.516194 -40.882254 0.717200 3.064687 -26.336914 0.000001 0.000001 0.000001 10.468188 7.147582 9.921593 -8.969343 17.057576 -9.772688 13.034199 26.908765 2.767803 -0.000000 0.000000 -0.000001 -0.081024 -3.216188 -2.457267 34.438709 -9.851142 43.843923 0.000800 85.085668 -0.000810 28.987524 19.331124 -18.439865 12.368835 -4.624740 21.260485 17.294816 -25.325407 -0.358856 11.165246 -70.172619 -5.514525 -0.000002 0.000003 0.000000 5.274447 -6.773191 70.945113 4.981897 -6.665505 73.522615 3.118673 -5.801949 56.488936 -0.000000 0.000001 -0.000001 -49.413198 -8.856770 52.583345 82.418404 0.126181 -3.966672 -15.110086 14.639252 -28.393496 0.000004 0.000001 -0.000004 -0.000000 -0.000000 0.000000 -52.689882 0.445939 -6.644747 83.027178 7.916280 -2.194501 -33.016660 -4.251889 11.014226 -0.000012 0.000019 -0.000002 -0.000000 -0.000002 0.000000 
-1.222762 61.731201 0.366089 7.666866 -66.014489 -2.029235 9.553655 -8.121704 1.113179 9.289032 -7.172882 -0.733513 9.191228 -7.293755 -0.720441 4.798920 10.749578 -1.966589 -24.397427 57.488575 -1.114451 -0.000000 0.000000 0.000000 2.282249 -7.827859 -7.297103 -5.653210 16.840998 -18.287405 -0.000017 -64.049423 -0.000021 -2.875751 -3.054015 37.488463 -2.660805 -2.943971 -29.720742 1.683998 4.516194 -40.882258 0.717202 3.064687 -26.336914 -0.000003 0.000001 -0.000000 10.468186 7.147578 9.921595 -8.969340 17.057580 -9.772688 13.034199 26.908765 2.767803 0.000000 0.000000 -0.000000 -0.098076 -3.317414 -2.334771 33.220544 -10.614311 43.644796 -0.000202 85.448986 0.000220 28.608140 19.358725 -18.600668 12.368832 -4.624740 21.260484 17.294818 -25.325409 -0.358853 11.165239 -70.172619 -5.514518 -0.000001 0.000002 0.000002 5.274444 -6.773189 70.945113 4.981897 -6.665503 73.522615 3.118670 -5.801950 56.488943 -0.000000 -0.000002 0.000001 -50.040951 -9.154628 52.213637 82.084551 0.208879 -3.961518 -14.856937 14.215148 -27.933647 0.000004 0.000001 -0.000004 -0.000000 -0.000000 -0.000000 -52.558777 -0.164487 -6.934600 82.482717 7.940522 -2.296632 -32.738289 -4.227769 11.022861 -0.000034 0.000015 0.000005 -0.000000 0.000000 -0.000000 
